<svg width="19" height="19" viewBox="0 0 19 19" fill="none" xmlns="http://www.w3.org/2000/svg">
<path d="M15.0404 3.16406H3.95703C3.32714 3.16406 2.72305 3.41429 2.27765 3.85968C1.83225 4.30508 1.58203 4.90917 1.58203 5.53906V13.4557C1.58203 14.0856 1.83225 14.6897 2.27765 15.1351C2.72305 15.5805 3.32714 15.8307 3.95703 15.8307H15.0404C15.6703 15.8307 16.2743 15.5805 16.7197 15.1351C17.1651 14.6897 17.4154 14.0856 17.4154 13.4557V5.53906C17.4154 4.90917 17.1651 4.30508 16.7197 3.85968C16.2743 3.41429 15.6703 3.16406 15.0404 3.16406ZM14.5099 4.7474L9.4987 8.50781L4.48745 4.7474H14.5099ZM15.0404 14.2474H3.95703C3.74707 14.2474 3.5457 14.164 3.39724 14.0155C3.24877 13.8671 3.16536 13.6657 3.16536 13.4557V5.73698L9.0237 10.1307C9.16073 10.2335 9.3274 10.2891 9.4987 10.2891C9.66999 10.2891 9.83666 10.2335 9.9737 10.1307L15.832 5.73698V13.4557C15.832 13.6657 15.7486 13.8671 15.6002 14.0155C15.4517 14.164 15.2503 14.2474 15.0404 14.2474Z" fill="white" fill-opacity="0.8"/>
</svg>
