<svg width="80" height="85" viewBox="0 0 80 85" fill="none" xmlns="http://www.w3.org/2000/svg">
<mask id="path-1-inside-1_233_383" fill="white">
<path fill-rule="evenodd" clip-rule="evenodd" d="M43.9978 0L0.000164586 48.9995L0 84.9978L79.9972 0H43.9978Z"/>
</mask>
<path fill-rule="evenodd" clip-rule="evenodd" d="M43.9978 0L0.000164586 48.9995L0 84.9978L79.9972 0H43.9978Z" fill="#F40F6F"/>
<path d="M0.000164586 48.9995L-0.743899 48.3314L-0.999834 48.6165L-0.999835 48.9995L0.000164586 48.9995ZM43.9978 0V-1H43.5518L43.2537 -0.668109L43.9978 0ZM0 84.9978L-1 84.9978L-1.00001 87.5194L0.728203 85.6831L0 84.9978ZM79.9972 0L80.7254 0.685361L82.3116 -1H79.9972V0ZM0.744228 49.6677L44.7419 0.668109L43.2537 -0.668109L-0.743899 48.3314L0.744228 49.6677ZM1 84.9978L1.00016 48.9995L-0.999835 48.9995L-1 84.9978L1 84.9978ZM79.269 -0.685361L-0.728203 84.3124L0.728203 85.6831L80.7254 0.685361L79.269 -0.685361ZM43.9978 1H79.9972V-1H43.9978V1Z" fill="#F40F6F" mask="url(#path-1-inside-1_233_383)"/>
</svg>
