<svg width="80" height="85" viewBox="0 0 80 85" fill="none" xmlns="http://www.w3.org/2000/svg">
<mask id="path-1-inside-1_1_1093" fill="white">
<path fill-rule="evenodd" clip-rule="evenodd" d="M79.9961 0L0 84.9966V48.9985L43.9967 0H79.9961Z"/>
</mask>
<path fill-rule="evenodd" clip-rule="evenodd" d="M79.9961 0L0 84.9966V48.9985L43.9967 0H79.9961Z" fill="#F40F6F"/>
<path d="M79.9961 0L80.7243 0.685361L82.3105 -1H79.9961V0ZM0 84.9966H-1V87.5182L0.728203 85.682L0 84.9966ZM0 48.9985L-0.744063 48.3304L-1 48.6154V48.9985H0ZM43.9967 0V-1H43.5507L43.2527 -0.668109L43.9967 0ZM79.2679 -0.685361L-0.728203 84.3113L0.728203 85.682L80.7243 0.685361L79.2679 -0.685361ZM1 84.9966V48.9985H-1V84.9966H1ZM0.744063 49.6666L44.7408 0.668109L43.2527 -0.668109L-0.744063 48.3304L0.744063 49.6666ZM43.9967 1H79.9961V-1H43.9967V1Z" fill="#F40F6F" mask="url(#path-1-inside-1_1_1093)"/>
</svg>
