<svg width="16" height="16" viewBox="0 0 16 16" fill="none" xmlns="http://www.w3.org/2000/svg">
<path d="M10.332 10.3307C10.332 10.5075 10.4023 10.6771 10.5273 10.8021C10.6523 10.9272 10.8219 10.9974 10.9987 10.9974C11.1755 10.9974 11.3451 10.9272 11.4701 10.8021C11.5951 10.6771 11.6654 10.5075 11.6654 10.3307C11.6654 10.1539 11.5951 9.98435 11.4701 9.85932C11.3451 9.7343 11.1755 9.66406 10.9987 9.66406C10.8219 9.66406 10.6523 9.7343 10.5273 9.85932C10.4023 9.98435 10.332 10.1539 10.332 10.3307Z" stroke="black" stroke-width="1.3" stroke-linecap="round" stroke-linejoin="round"/>
<path d="M4.66602 4.66536C4.66602 4.31174 4.80649 3.9726 5.05654 3.72256C5.30659 3.47251 5.64573 3.33203 5.99935 3.33203C6.35297 3.33203 6.69211 3.47251 6.94216 3.72256C7.19221 3.9726 7.33268 4.31174 7.33268 4.66536V10.6654C7.33268 11.1958 7.5434 11.7045 7.91847 12.0796C8.29354 12.4547 8.80225 12.6654 9.33268 12.6654C9.86312 12.6654 10.3718 12.4547 10.7469 12.0796C11.122 11.7045 11.3327 11.1958 11.3327 10.6654V10.332M5.33268 7.33203H9.33268" stroke="black" stroke-width="1.3" stroke-linecap="round" stroke-linejoin="round"/>
</svg>
