<svg width="16" height="16" viewBox="0 0 16 16" fill="none" xmlns="http://www.w3.org/2000/svg">
<path d="M10.3281 10.3307C10.3281 10.5075 10.3984 10.6771 10.5234 10.8021C10.6484 10.9272 10.818 10.9974 10.9948 10.9974C11.1716 10.9974 11.3412 10.9272 11.4662 10.8021C11.5912 10.6771 11.6615 10.5075 11.6615 10.3307C11.6615 10.1539 11.5912 9.98435 11.4662 9.85932C11.3412 9.7343 11.1716 9.66406 10.9948 9.66406C10.818 9.66406 10.6484 9.7343 10.5234 9.85932C10.3984 9.98435 10.3281 10.1539 10.3281 10.3307Z" stroke="black" stroke-width="1.3" stroke-linecap="round" stroke-linejoin="round"/>
<path d="M4.66406 4.66536C4.66406 4.31174 4.80454 3.9726 5.05459 3.72256C5.30464 3.47251 5.64377 3.33203 5.9974 3.33203C6.35102 3.33203 6.69016 3.47251 6.9402 3.72256C7.19025 3.9726 7.33073 4.31174 7.33073 4.66536V10.6654C7.33073 11.1958 7.54144 11.7045 7.91652 12.0796C8.29159 12.4547 8.8003 12.6654 9.33073 12.6654C9.86116 12.6654 10.3699 12.4547 10.7449 12.0796C11.12 11.7045 11.3307 11.1958 11.3307 10.6654V10.332M5.33073 7.33203H9.33073" stroke="black" stroke-width="1.3" stroke-linecap="round" stroke-linejoin="round"/>
</svg>
