<svg width="14" height="18" viewBox="0 0 14 18" fill="none" xmlns="http://www.w3.org/2000/svg">
<path d="M13.125 4.5H10.5V3.6C10.5 2.64522 10.1313 1.72955 9.47487 1.05442C8.8185 0.379285 7.92826 0 7 0C6.07174 0 5.1815 0.379285 4.52513 1.05442C3.86875 1.72955 3.5 2.64522 3.5 3.6V4.5H0.875C0.642936 4.5 0.420376 4.59482 0.256282 4.7636C0.0921874 4.93239 0 5.1613 0 5.4V15.3C0 16.0161 0.276562 16.7028 0.768845 17.2092C1.26113 17.7155 1.92881 18 2.625 18H11.375C12.0712 18 12.7389 17.7155 13.2312 17.2092C13.7234 16.7028 14 16.0161 14 15.3V5.4C14 5.1613 13.9078 4.93239 13.7437 4.7636C13.5796 4.59482 13.3571 4.5 13.125 4.5ZM5.25 3.6C5.25 3.12261 5.43437 2.66477 5.76256 2.32721C6.09075 1.98964 6.53587 1.8 7 1.8C7.46413 1.8 7.90925 1.98964 8.23744 2.32721C8.56563 2.66477 8.75 3.12261 8.75 3.6V4.5H5.25V3.6ZM12.25 15.3C12.25 15.5387 12.1578 15.7676 11.9937 15.9364C11.8296 16.1052 11.6071 16.2 11.375 16.2H2.625C2.39294 16.2 2.17038 16.1052 2.00628 15.9364C1.84219 15.7676 1.75 15.5387 1.75 15.3V6.3H3.5V7.2C3.5 7.43869 3.59219 7.66761 3.75628 7.8364C3.92038 8.00518 4.14294 8.1 4.375 8.1C4.60706 8.1 4.82962 8.00518 4.99372 7.8364C5.15781 7.66761 5.25 7.43869 5.25 7.2V6.3H8.75V7.2C8.75 7.43869 8.84219 7.66761 9.00628 7.8364C9.17038 8.00518 9.39294 8.1 9.625 8.1C9.85706 8.1 10.0796 8.00518 10.2437 7.8364C10.4078 7.66761 10.5 7.43869 10.5 7.2V6.3H12.25V15.3Z" fill="#F40F6F"/>
</svg>
