<svg width="34" height="36" viewBox="0 0 34 36" fill="none" xmlns="http://www.w3.org/2000/svg">
<path d="M0.838866 13.4909C0.516122 12.8382 0.462924 12.0855 0.690975 11.3984C0.919025 10.7113 1.40964 10.146 2.0549 9.8269L19.8965 1.00433C20.5417 0.685252 21.2887 0.638518 21.9732 0.874407C22.6577 1.11029 23.2236 1.60948 23.5463 2.26215L29.2252 13.7464C29.5479 14.399 29.6011 15.1517 29.3731 15.8389C29.145 16.526 28.6544 17.0913 28.0092 17.4104L19.0884 21.8216L18.2771 20.181L27.1979 15.7698C27.413 15.6634 27.5765 15.475 27.6525 15.2459C27.7285 15.0169 27.7108 14.766 27.6032 14.5484L21.9243 3.06421C21.8168 2.84665 21.6281 2.68025 21.4 2.60162C21.1718 2.52299 20.9228 2.53857 20.7077 2.64493L2.86617 11.4675C2.65108 11.5739 2.48754 11.7623 2.41153 11.9913C2.33551 12.2204 2.35324 12.4713 2.46083 12.6888L3.67773 15.1497L2.05577 15.9518L0.838866 13.4909ZM20.7109 25.1028L32.8756 19.0875C33.0907 18.9811 33.2542 18.7927 33.3303 18.5636C33.4063 18.3346 33.3885 18.0837 33.281 17.8661C33.1734 17.6486 32.9848 17.4822 32.7566 17.4035C32.5284 17.3249 32.2794 17.3405 32.0644 17.4469L19.8997 23.4622L20.7109 25.1028ZM12.6011 29.1131C12.386 29.2195 12.2225 29.4079 12.1465 29.6369C12.0705 29.866 12.0882 30.1169 12.1958 30.3344C12.3034 30.552 12.492 30.7184 12.7201 30.797C12.9483 30.8756 13.1973 30.8601 13.4124 30.7537L15.0344 29.9517C15.2494 29.8453 15.413 29.6569 15.489 29.4278C15.565 29.1988 15.5473 28.9479 15.4397 28.7303C15.3321 28.5128 15.1435 28.3464 14.9153 28.2677C14.6872 28.1891 14.4382 28.2047 14.2231 28.3111L12.6011 29.1131ZM2.46199 20.8553C2.13925 20.2027 2.08605 19.45 2.3141 18.7629C2.54215 18.0757 3.03277 17.5104 3.67802 17.1914L10.1659 13.9832C10.8111 13.6641 11.5582 13.6173 12.2426 13.8532C12.9271 14.0891 13.493 14.5883 13.8157 15.241L20.3059 28.3658C20.6286 29.0185 20.6818 29.7712 20.4538 30.4583C20.2257 31.1454 19.7351 31.7107 19.0898 32.0298L12.602 35.238C11.9567 35.5571 11.2097 35.6038 10.5252 35.3679C9.84075 35.132 9.2749 34.6328 8.95216 33.9802L2.46199 20.8553ZM4.48929 18.832C4.27421 18.9383 4.11067 19.1268 4.03465 19.3558C3.95864 19.5848 3.97637 19.8357 4.08395 20.0533L10.5741 33.1781C10.6817 33.3957 10.8703 33.5621 11.0985 33.6407C11.3266 33.7193 11.5756 33.7037 11.7907 33.5974L18.2786 30.3892C18.4937 30.2828 18.6572 30.0944 18.7332 29.8654C18.8092 29.6363 18.7915 29.3854 18.6839 29.1679L12.1937 16.043C12.0862 15.8255 11.8975 15.6591 11.6694 15.5804C11.4412 15.5018 11.1922 15.5174 10.9771 15.6238L4.48929 18.832Z" fill="#FF87A6" fill-opacity="0.5"/>
</svg>
