<svg width="54" height="56" viewBox="0 0 54 56" fill="none" xmlns="http://www.w3.org/2000/svg">
<path d="M29.5934 16.7602L24.6257 6.85172C23.5277 4.6618 21.6147 2.99278 19.3074 2.21183C17.0001 1.43087 14.4876 1.60195 12.3225 2.68742C10.1575 3.77289 8.51726 5.68385 7.7627 7.9999C7.00813 10.316 7.20104 12.8474 8.29898 15.0373L13.2667 24.9458M35.7874 8.16338L51.7841 33.2076C52.6706 34.5955 52.1767 36.4357 50.7203 37.1658L16.9785 54.0827C16.6352 54.2553 16.259 54.3529 15.8744 54.3692C15.4897 54.3855 15.1053 54.3201 14.7459 54.1772C14.3866 54.0344 14.0604 53.8173 13.7886 53.5401C13.5168 53.2629 13.3054 52.9317 13.1682 52.5681L2.67247 24.7659C2.43077 24.1254 2.43233 23.4196 2.67686 22.7847C2.92139 22.1497 3.39157 21.6306 3.99674 21.3273L32.2397 7.16736C33.4936 6.53871 35.0253 6.96938 35.7874 8.16338ZM14.0831 24.5365C14.1929 24.7555 14.2121 25.0087 14.1367 25.2403C14.0612 25.4719 13.8972 25.663 13.6807 25.7715C13.4642 25.8801 13.2129 25.8972 12.9822 25.8191C12.7515 25.741 12.5602 25.5741 12.4504 25.3551C12.3406 25.1361 12.3213 24.8829 12.3968 24.6513C12.4722 24.4197 12.6362 24.2286 12.8527 24.1201C13.0693 24.0115 13.3205 23.9944 13.5512 24.0725C13.782 24.1506 13.9733 24.3175 14.0831 24.5365ZM30.4097 16.3509C30.5195 16.5699 30.5388 16.8231 30.4634 17.0547C30.3879 17.2863 30.2239 17.4774 30.0074 17.5859C29.7909 17.6945 29.5396 17.7116 29.3089 17.6335C29.0782 17.5554 28.8869 17.3885 28.7771 17.1695C28.6673 16.9505 28.648 16.6974 28.7234 16.4658C28.7989 16.2342 28.9629 16.0431 29.1794 15.9345C29.3959 15.826 29.6472 15.8089 29.8779 15.887C30.1087 15.965 30.3 16.132 30.4097 16.3509Z" stroke="#FF87A6" stroke-opacity="0.5" stroke-width="3" stroke-linecap="round" stroke-linejoin="round"/>
</svg>
