<svg width="43" height="42" viewBox="0 0 43 42" fill="none" xmlns="http://www.w3.org/2000/svg">
<path d="M14.529 17.7119C15.233 19.4814 16.5096 21.4021 18.0734 23.0457C18.4545 23.4456 18.8515 23.8281 19.2634 24.1923L24.4379 18.7536C24.0229 18.3678 23.6194 17.9686 23.2279 17.5565C23.2278 17.5564 23.2277 17.5564 23.2277 17.5563L23.5901 17.2119C22.6477 16.2214 21.7732 15.1637 21.114 14.1792L14.529 17.7119ZM14.529 17.7119L19.6005 12.3819L14.529 17.7119ZM35.0583 0.500124L35.0584 0.500124C35.9053 0.504626 36.8726 0.636863 37.8709 0.923949C39.474 1.38513 40.8062 2.14449 41.616 2.90177L41.616 2.90179C42.4557 3.68686 42.5369 4.24238 42.4882 4.42912C42.442 4.60659 42.1172 5.03461 41.0205 5.25962C39.962 5.47668 38.4502 5.41834 36.8467 4.95706L36.7085 5.43757L36.8467 4.95705C35.2437 4.49599 33.9117 3.73645 33.1018 2.97914L33.1017 2.9791C32.262 2.19404 32.1809 1.63852 32.2295 1.45179L32.2295 1.4517C32.2757 1.27438 32.6006 0.846324 33.6974 0.621288C34.0907 0.54068 34.5503 0.497368 35.0583 0.500124ZM36.1313 7.60373C37.0283 7.86179 37.9132 8.02466 38.7609 8.09383L28.7615 18.6032C28.5016 18.4849 28.1466 18.2914 27.7299 17.9833L27.4326 18.3853L27.7299 17.9833C26.9322 17.3933 26.0006 16.5485 25.1282 15.6317C24.256 14.7149 23.4517 13.735 22.8893 12.8952C22.5804 12.4338 22.3913 12.043 22.2791 11.7634L30.1113 3.53195C30.4231 4.07599 30.8428 4.57516 31.3135 5.0153C32.5109 6.13504 34.1917 7.04578 36.1313 7.60373ZM12.0367 18.6837C12.8931 20.9161 14.3941 23.101 16.1732 24.9709C16.9199 25.7557 17.7183 26.4873 18.5494 27.1391L6.84145 39.4442C6.01497 38.8352 5.20597 38.1264 4.45933 37.3472C2.50115 35.3035 1.02569 32.8433 0.544036 30.7625L12.0367 18.6837ZM20.829 28.6656C21.2823 28.9188 21.7413 29.1453 22.2035 29.3399L10.6871 41.4435C10.2152 41.3135 9.71797 41.1239 9.20626 40.881L20.829 28.6656ZM28.202 21.3881L23.1016 26.7488C22.5564 26.5063 21.9944 26.1992 21.4292 25.8377L26.5322 20.4747C27.0663 20.8569 27.6094 21.2005 28.202 21.3881Z" stroke="#FF87A6" stroke-opacity="0.8"/>
</svg>
