<svg width="59" height="25" viewBox="0 0 59 25" fill="none" xmlns="http://www.w3.org/2000/svg">
<path d="M10.9519 1.24995C11.2981 0.857948 11.7279 0.543232 12.2116 0.327456C12.6954 0.11168 13.2217 -3.39296e-05 13.7544 7.73001e-09H45.2456C45.7783 -3.39296e-05 46.3046 0.11168 46.7883 0.327456C47.2721 0.543232 47.7019 0.857948 48.0481 1.24995L57.6688 12.121C58.5278 13.0918 59 14.3281 59 15.6066V16.5172C59.0002 18.2849 58.4301 20.0085 57.3694 21.4471C56.3088 22.8857 54.8105 23.9674 53.0841 24.541C51.3576 25.1146 49.4892 25.1515 47.7401 24.6465C45.9909 24.1414 44.4484 23.1197 43.3281 21.7242C42.51 22.7447 41.4616 23.5705 40.2632 24.1381C39.0648 24.7057 37.7481 25.0002 36.4141 24.9991C35.0799 25.0005 33.7632 24.7061 32.5647 24.1385C31.3663 23.5708 30.3179 22.7449 29.5 21.7242C28.6821 22.7449 27.6337 23.5708 26.4353 24.1385C25.2368 24.7061 23.92 25.0005 22.5859 24.9991C21.2518 25.0005 19.9351 24.7061 18.7366 24.1385C17.5382 23.5708 16.4898 22.7449 15.6719 21.7242C14.5516 23.1197 13.0091 24.1414 11.2599 24.6465C9.51077 25.1515 7.6424 25.1146 5.91595 24.541C4.18949 23.9674 2.69122 22.8857 1.63055 21.4471C0.569873 20.0085 -0.000201332 18.2849 5.3338e-08 16.5172V15.6066C4.64903e-05 14.3281 0.472209 13.0918 1.33119 12.121L10.9556 1.24638L10.9519 1.24995ZM17.5156 16.5172C17.5156 17.8196 18.0498 19.0686 19.0007 19.9895C19.9516 20.9104 21.2412 21.4278 22.5859 21.4278C23.9307 21.4278 25.2203 20.9104 26.1712 19.9895C27.1221 19.0686 27.6562 17.8196 27.6562 16.5172C27.6562 16.0437 27.8505 15.5895 28.1963 15.2546C28.542 14.9197 29.011 14.7316 29.5 14.7316C29.989 14.7316 30.458 14.9197 30.8037 15.2546C31.1495 15.5895 31.3437 16.0437 31.3437 16.5172C31.3437 17.8196 31.8779 19.0686 32.8288 19.9895C33.7797 20.9104 35.0693 21.4278 36.4141 21.4278C37.7588 21.4278 39.0484 20.9104 39.9993 19.9895C40.9502 19.0686 41.4844 17.8196 41.4844 16.5172C41.4844 16.0437 41.6786 15.5895 42.0244 15.2546C42.3702 14.9197 42.8391 14.7316 43.3281 14.7316C43.8171 14.7316 44.2861 14.9197 44.6319 15.2546C44.9776 15.5895 45.1719 16.0437 45.1719 16.5172C45.1719 17.8196 45.7061 19.0686 46.6569 19.9895C47.6078 20.9104 48.8975 21.4278 50.2422 21.4278C51.5869 21.4278 52.8766 20.9104 53.8274 19.9895C54.7783 19.0686 55.3125 17.8196 55.3125 16.5172V15.6066C55.3125 15.181 55.1556 14.7693 54.87 14.4459L45.2456 3.57129H13.7544L4.13 14.4459C3.84439 14.7693 3.68747 15.181 3.6875 15.6066V16.5172C3.6875 17.8196 4.22169 19.0686 5.17256 19.9895C6.12343 20.9104 7.41308 21.4278 8.75781 21.4278C10.1025 21.4278 11.3922 20.9104 12.3431 19.9895C13.2939 19.0686 13.8281 17.8196 13.8281 16.5172C13.8281 16.0437 14.0224 15.5895 14.3681 15.2546C14.7139 14.9197 15.1829 14.7316 15.6719 14.7316C16.1609 14.7316 16.6298 14.9197 16.9756 15.2546C17.3214 15.5895 17.5156 16.0437 17.5156 16.5172Z" fill="#FF87A6" fill-opacity="0.5"/>
</svg>
