<svg width="79" height="73" viewBox="0 0 79 73" fill="none" xmlns="http://www.w3.org/2000/svg">
<path d="M14.6644 1.70333C15.1279 1.16914 15.7034 0.740272 16.3512 0.44623C16.999 0.152188 17.7037 -4.62365e-05 18.4169 1.05338e-08H60.5831C61.2963 -4.62365e-05 62.001 0.152188 62.6488 0.44623C63.2966 0.740272 63.8721 1.16914 64.3356 1.70333L77.2176 16.5175C78.3677 17.8404 78.9999 19.5251 79 21.2673V22.5083C79.0003 24.9172 78.2369 27.266 76.8167 29.2264C75.3965 31.1868 73.3903 32.6608 71.0787 33.4425C68.767 34.2242 66.2652 34.2744 63.9232 33.5862C61.5811 32.898 59.5157 31.5057 58.0156 29.6039C56.9202 30.9947 55.5164 32.1199 53.9117 32.8934C52.3071 33.6669 50.5441 34.0683 48.7578 34.0667C46.9715 34.0686 45.2084 33.6675 43.6036 32.8939C41.9989 32.1204 40.5952 30.9949 39.5 29.6039C38.4048 30.9949 37.0011 32.1204 35.3964 32.8939C33.7916 33.6675 32.0285 34.0686 30.2422 34.0667C28.4558 34.0686 26.6927 33.6675 25.088 32.8939C23.4833 32.1204 22.0796 30.9949 20.9844 29.6039C19.4843 31.5057 17.4189 32.898 15.0768 33.5862C12.7348 34.2744 10.233 34.2242 7.92135 33.4425C5.60965 32.6608 3.6035 31.1868 2.18328 29.2264C0.76305 27.266 -0.00026958 24.9172 7.14187e-08 22.5083V21.2673C6.22497e-05 19.5251 0.632279 17.8404 1.78244 16.5175L14.6693 1.69847L14.6644 1.70333ZM23.4531 22.5083C23.4531 24.2831 24.1684 25.9851 25.4416 27.2401C26.7148 28.495 28.4416 29.2 30.2422 29.2C32.0428 29.2 33.7696 28.495 35.0428 27.2401C36.316 25.9851 37.0312 24.2831 37.0312 22.5083C37.0312 21.863 37.2914 21.244 37.7543 20.7877C38.2173 20.3314 38.8452 20.075 39.5 20.075C40.1548 20.075 40.7827 20.3314 41.2457 20.7877C41.7087 21.244 41.9688 21.863 41.9688 22.5083C41.9688 24.2831 42.684 25.9851 43.9572 27.2401C45.2304 28.495 46.9572 29.2 48.7578 29.2C50.5584 29.2 52.2852 28.495 53.5584 27.2401C54.8316 25.9851 55.5469 24.2831 55.5469 22.5083C55.5469 21.863 55.807 21.244 56.27 20.7877C56.7329 20.3314 57.3609 20.075 58.0156 20.075C58.6704 20.075 59.2983 20.3314 59.7613 20.7877C60.2243 21.244 60.4844 21.863 60.4844 22.5083C60.4844 24.2831 61.1996 25.9851 62.4728 27.2401C63.746 28.495 65.4729 29.2 67.2734 29.2C69.074 29.2 70.8008 28.495 72.074 27.2401C73.3472 25.9851 74.0625 24.2831 74.0625 22.5083V21.2673C74.0625 20.6874 73.8524 20.1264 73.47 19.6857L60.5831 4.86667H18.4169L5.53 19.6857C5.14758 20.1264 4.93745 20.6874 4.9375 21.2673V22.5083C4.9375 24.2831 5.65277 25.9851 6.92597 27.2401C8.19917 28.495 9.92599 29.2 11.7266 29.2C13.5271 29.2 15.254 28.495 16.5272 27.2401C17.8004 25.9851 18.5156 24.2831 18.5156 22.5083C18.5156 21.863 18.7757 21.244 19.2387 20.7877C19.7017 20.3314 20.3296 20.075 20.9844 20.075C21.6391 20.075 22.2671 20.3314 22.73 20.7877C23.193 21.244 23.4531 21.863 23.4531 22.5083ZM7.40625 36.5C8.061 36.5 8.68894 36.7564 9.15192 37.2127C9.6149 37.669 9.875 38.288 9.875 38.9333V68.1333H14.8125V43.8C14.8125 42.5093 15.3327 41.2714 16.2587 40.3587C17.1846 39.4461 18.4405 38.9333 19.75 38.9333H34.5625C35.872 38.9333 37.1279 39.4461 38.0538 40.3587C38.9798 41.2714 39.5 42.5093 39.5 43.8V68.1333H69.125V38.9333C69.125 38.288 69.3851 37.669 69.8481 37.2127C70.3111 36.7564 70.939 36.5 71.5938 36.5C72.2485 36.5 72.8764 36.7564 73.3394 37.2127C73.8024 37.669 74.0625 38.288 74.0625 38.9333V68.1333H76.5312C77.186 68.1333 77.8139 68.3897 78.2769 68.846C78.7399 69.3024 79 69.9213 79 70.5667C79 71.212 78.7399 71.831 78.2769 72.2873C77.8139 72.7436 77.186 73 76.5312 73H2.46875C1.814 73 1.18606 72.7436 0.72308 72.2873C0.2601 71.831 7.14187e-08 71.212 7.14187e-08 70.5667C7.14187e-08 69.9213 0.2601 69.3024 0.72308 68.846C1.18606 68.3897 1.814 68.1333 2.46875 68.1333H4.9375V38.9333C4.9375 38.288 5.1976 37.669 5.66058 37.2127C6.12356 36.7564 6.7515 36.5 7.40625 36.5ZM19.75 68.1333H34.5625V43.8H19.75V68.1333ZM44.4375 43.8C44.4375 42.5093 44.9577 41.2714 45.8837 40.3587C46.8096 39.4461 48.0655 38.9333 49.375 38.9333H59.25C60.5595 38.9333 61.8154 39.4461 62.7413 40.3587C63.6673 41.2714 64.1875 42.5093 64.1875 43.8V58.4C64.1875 59.6907 63.6673 60.9286 62.7413 61.8413C61.8154 62.7539 60.5595 63.2667 59.25 63.2667H49.375C48.0655 63.2667 46.8096 62.7539 45.8837 61.8413C44.9577 60.9286 44.4375 59.6907 44.4375 58.4V43.8ZM59.25 43.8H49.375V58.4H59.25V43.8Z" fill="#FF87A6" fill-opacity="0.5"/>
</svg>
