<svg width="82" height="86" viewBox="0 0 82 86" fill="none" xmlns="http://www.w3.org/2000/svg">
<path d="M0.983643 31.6511C0.18969 30.0455 0.0588219 28.1939 0.619828 26.5035C1.18083 24.8132 2.38776 23.4226 3.9751 22.6377L47.8655 0.934038C49.4529 0.149108 51.2906 0.0341408 52.9744 0.614429C54.6582 1.19471 56.0502 2.42272 56.8442 4.0283L70.8143 32.2796C71.6083 33.8852 71.7392 35.7368 71.1781 37.4272C70.6171 39.1175 69.4102 40.5081 67.8229 41.293L45.8777 52.1449L43.8819 48.109L65.8271 37.2571C66.3563 36.9955 66.7586 36.532 66.9456 35.9685C67.1326 35.4051 67.0889 34.7879 66.8243 34.2527L52.8541 6.00136C52.5895 5.46617 52.1255 5.05683 51.5642 4.8634C51.0029 4.66997 50.3904 4.7083 49.8613 4.96994L5.97083 26.6736C5.44172 26.9352 5.03941 27.3987 4.85241 27.9622C4.66541 28.5256 4.70903 29.1429 4.97368 29.678L7.96729 35.7319L3.97725 37.705L0.983643 31.6511ZM49.8691 60.2167L79.7944 45.4187C80.3235 45.1571 80.7259 44.6936 80.9129 44.1301C81.0999 43.5667 81.0562 42.9494 80.7916 42.4143C80.5269 41.8791 80.0629 41.4697 79.5017 41.2763C78.9404 41.0829 78.3278 41.1212 77.7987 41.3828L47.8734 56.1808L49.8691 60.2167ZM29.9189 70.082C29.3898 70.3436 28.9875 70.8071 28.8005 71.3706C28.6135 71.934 28.6571 72.5512 28.9218 73.0864C29.1864 73.6216 29.6505 74.031 30.2117 74.2244C30.773 74.4178 31.3856 74.3795 31.9147 74.1179L35.9047 72.1448C36.4338 71.8832 36.8361 71.4196 37.0231 70.8562C37.2101 70.2927 37.1665 69.6755 36.9019 69.1403C36.6372 68.6051 36.1732 68.1958 35.6119 68.0024C35.0507 67.8089 34.4381 67.8472 33.909 68.1089L29.9189 70.082ZM4.97655 49.7678C4.1826 48.1622 4.05173 46.3106 4.61273 44.6202C5.17374 42.9299 6.38067 41.5393 7.968 40.7543L23.9282 32.8621C25.5155 32.0772 27.3532 31.9622 29.037 32.5425C30.7209 33.1228 32.1129 34.3508 32.9068 35.9564L48.8727 68.2436C49.6667 69.8492 49.7975 71.7008 49.2365 73.3911C48.6755 75.0815 47.4686 76.4721 45.8813 77.257L29.9211 85.1492C28.3338 85.9342 26.496 86.0491 24.8122 85.4689C23.1284 84.8886 21.7364 83.6606 20.9424 82.055L4.97655 49.7678ZM9.96374 44.7902C9.43463 45.0519 9.03232 45.5154 8.84532 46.0789C8.65831 46.6423 8.70194 47.2595 8.96659 47.7947L24.9325 80.0819C25.1971 80.6171 25.6611 81.0265 26.2224 81.2199C26.7837 81.4133 27.3963 81.375 27.9254 81.1133L43.8855 73.2211C44.4146 72.9595 44.8169 72.4959 45.0039 71.9325C45.1909 71.369 45.1473 70.7518 44.8827 70.2166L28.9168 37.9294C28.6521 37.3942 28.1881 36.9849 27.6269 36.7915C27.0656 36.598 26.453 36.6364 25.9239 36.898L9.96374 44.7902Z" fill="#FF87A6" fill-opacity="0.5"/>
</svg>
